<?xml version="1.0" encoding="UTF-8"?>
<svg width="78px" height="78px" viewBox="0 0 78 78" version="1.1" xmlns="http://www.w3.org/2000/svg" xmlns:xlink="http://www.w3.org/1999/xlink">
    <!-- Generator: Sketch 54.1 (76490) - https://sketchapp.com -->
    <title>Group</title>
    <desc>Created with Sketch.</desc>
    <defs>
        <polygon id="path-1" points="0.000269274163 0.194310345 52.1629365 0.194310345 52.1629365 48.1551724 0.000269274163 48.1551724"></polygon>
    </defs>
    <g id="Page-1" stroke="none" stroke-width="1" fill="none" fill-rule="evenodd">
        <g id="Group">
            <g id="logo_icon" fill="#F04F24" fill-rule="nonzero">
                <rect id="Rectangle-Copy" x="0" y="0" width="78" height="78"></rect>
            </g>
            <g id="Group-7" transform="translate(13.000000, 14.000000)">
                <g id="Group-6">
                    <path d="M36.6969476,6.35572241 C36.6102968,5.48132586 35.834646,4.84263621 34.9630905,4.92965345 C34.0923762,5.01582586 33.4563762,5.79560172 33.543027,6.66999828 C33.6296778,7.54439483 34.4053286,8.18308448 35.2768841,8.09691207 C36.1475984,8.00989483 36.7835984,7.23011897 36.6969476,6.35572241" id="Fill-1" fill="#FEFEFE"></path>
                    <g id="Group-5" transform="translate(0.000000, 0.650602)">
                        <mask id="mask-2" fill="white">
                            <use xlink:href="#path-1"></use>
                        </mask>
                        <g id="Clip-4"></g>
                        <path d="M47.1807683,11.4291655 C48.4048159,18.7082 46.7786413,26.3496655 43.0089111,32.6613724 C39.0246571,39.3312862 30.463054,45.4765621 22.4667841,42.233269 C18.5187048,40.6323207 16.3835619,37.0012517 16.2607365,32.8049931 C16.1867048,30.2232 16.9068317,27.7064586 18.0417048,25.4119069 C18.2208952,25.0494759 18.4110222,24.6929586 18.6095619,24.3415103 C18.7180857,24.1505793 18.8299746,23.9604931 18.9443873,23.7720966 C19.049546,23.5972172 18.9755143,23.7197172 19.0049587,23.6715621 C19.071419,23.5676483 19.1378794,23.4637345 19.205181,23.3606655 C19.7326571,22.5555448 20.3114508,21.7842172 20.9323079,21.0500621 C22.4087365,19.3004241 24.0138794,17.8735103 25.8974825,16.5251655 C31.3623714,12.612769 37.9402603,10.4103034 44.4626254,9.07125172 C45.1373238,8.9327 45.8170698,8.8194931 46.4951333,8.69868276 C46.8122921,9.58406207 47.0268159,10.5125276 47.1807683,11.4291655 M50.9269429,5.64801034 C49.9014349,5.77980345 48.875927,5.92511379 47.850419,6.08901034 C45.6732127,2.21209655 41.1715778,0.339958621 36.876054,0.199717241 C35.2204349,0.146493103 33.5723873,0.472596552 31.9680857,0.850234483 C30.0794349,1.29292414 28.2109746,1.84037241 26.4056095,2.55256207 C25.705673,2.82882069 25.016673,3.13211379 24.3537524,3.48694138 C24.318419,3.50552759 23.8077683,3.77080345 23.8826413,3.74292414 C23.7270063,3.81473448 23.5713714,3.88401034 23.417419,3.9592 C21.0542921,5.11492414 18.8728794,6.65673448 16.8807524,8.37088966 C13.1110222,11.6150276 9.99327619,15.5291138 7.51068889,19.8385793 C3.91678413,26.077631 1.76986349,33.1032172 0.700609524,40.2065276 C0.369990476,42.3988552 0.146212698,44.6055448 0.0031968254,46.8173034 C-0.0927079365,48.3050448 2.19891111,48.7122517 2.29565714,47.2126828 C2.7793873,39.748631 4.23983175,32.3014759 7.27849841,25.4423207 C9.36232381,20.7408552 12.1671175,16.3773207 15.7214825,12.6626138 C17.7884825,10.5015448 20.2862127,8.41988966 23.0194984,6.80880345 C23.2205619,6.69137241 23.4233079,6.57732069 23.6252127,6.46326897 C23.629419,6.45988966 23.629419,6.45988966 23.6327841,6.4582 C23.6470857,6.45059655 23.6580222,6.44552759 23.679054,6.43454483 C23.7623397,6.39061379 23.8447841,6.34668276 23.9272286,6.30444138 C24.156054,6.18616552 24.3882444,6.07633793 24.6212762,5.96651034 C26.3097048,5.16645862 27.9779429,4.40611379 29.7858317,3.84514828 C33.1702603,2.79587241 36.6118952,2.05073448 40.1014825,3.03411379 C41.9615302,3.55959655 43.9183238,4.58859655 45.1289111,6.13801034 C45.2231333,6.25966552 45.3072603,6.38807931 45.3947524,6.51480345 C39.2383397,7.66968276 33.1862444,9.51394138 27.7221968,12.6051655 C23.4249905,15.0348897 19.5770222,18.3449241 16.9640381,22.5775103 C13.7487048,27.7858724 12.4968952,34.8900276 16.1993238,40.2048379 C18.7744508,43.9026483 23.4073238,45.6303207 27.7920222,45.3844759 C32.4694825,45.1234241 37.0291651,42.7798724 40.4110698,39.5965621 C46.129181,34.2150103 49.3983556,26.0565103 49.8602127,18.2697345 C50.0503397,15.0551655 49.8980698,11.4528207 48.8187206,8.31175172 C49.5977365,8.19432069 50.3759111,8.07266552 51.1574508,7.97297586 C52.6397683,7.78457931 52.4159905,5.45876897 50.9269429,5.64801034" id="Fill-3" fill="#FEFEFE" mask="url(#mask-2)"></path>
                    </g>
                </g>
            </g>
        </g>
    </g>
</svg>