<svg width="53" height="48" viewBox="0 0 53 48" fill="none" xmlns="http://www.w3.org/2000/svg">
<path fill-rule="evenodd" clip-rule="evenodd" d="M36.697 5.51213C36.6103 4.63773 35.8347 3.99904 34.9631 4.08606C34.0924 4.17223 33.4564 4.95201 33.5431 5.8264C33.6297 6.7008 34.4054 7.33949 35.2769 7.25332C36.1476 7.1663 36.7836 6.38652 36.697 5.51213Z" fill="#EBEBEB"/>
<path fill-rule="evenodd" clip-rule="evenodd" d="M47.1805 11.2352C48.4045 18.5142 46.7784 26.1557 43.0086 32.4674C39.0244 39.1373 30.4628 45.2826 22.4665 42.0393C18.5184 40.4383 16.3833 36.8073 16.2605 32.611C16.1864 30.0292 16.9066 27.5125 18.0414 25.2179C18.2206 24.8555 18.4108 24.499 18.6093 24.1475C18.7178 23.9566 18.8297 23.7665 18.9441 23.5781C19.0493 23.4032 18.9752 23.5257 19.0047 23.4776C19.0712 23.3737 19.1376 23.2697 19.2049 23.1667C19.7324 22.3615 20.3112 21.5902 20.932 20.8561C22.4085 19.1064 24.0136 17.6795 25.8972 16.3312C31.3621 12.4188 37.94 10.2163 44.4624 8.87725C45.1371 8.7387 45.8168 8.6255 46.4949 8.50469C46.812 9.39006 47.0265 10.3185 47.1805 11.2352ZM50.9267 5.45401C49.9012 5.58581 48.8757 5.73112 47.8501 5.89501C45.6729 2.0181 41.1713 0.145961 36.8758 0.00571965C35.2202 -0.0475045 33.5721 0.278599 31.9678 0.656237C30.0792 1.09893 28.2107 1.64637 26.4053 2.35856C25.7054 2.63482 25.0164 2.93812 24.3535 3.29294C24.3181 3.31153 23.8075 3.57681 23.8824 3.54893C23.7267 3.62074 23.5711 3.69001 23.4172 3.7652C21.054 4.92093 18.8726 6.46274 16.8805 8.17689C13.1108 11.421 9.99301 15.3351 7.51042 19.6446C3.91651 25.8836 1.76959 32.9092 0.70034 40.0125C0.369721 42.2049 0.145943 44.4115 0.00292755 46.6233C-0.0929772 48.111 2.19864 48.5183 2.29539 47.0187C2.77912 39.5546 4.23956 32.1075 7.27823 25.2483C9.36205 20.5469 12.1668 16.1833 15.7212 12.4686C17.7882 10.3075 20.2859 8.22589 23.0192 6.61481C23.2203 6.49738 23.423 6.38332 23.6249 6.26927C23.6292 6.26589 23.6291 6.26589 23.6325 6.2642C23.6468 6.2566 23.6578 6.25153 23.6788 6.24055C23.7621 6.19662 23.8445 6.15269 23.927 6.11044C24.1558 5.99217 24.388 5.88234 24.621 5.77251C26.3094 4.97246 27.9777 4.21212 29.7856 3.65115C33.17 2.60187 36.6116 1.85674 40.1012 2.84012C41.9613 3.3656 43.9181 4.3946 45.1286 5.94401C45.2229 6.06567 45.307 6.19408 45.3945 6.32081C39.2381 7.47569 33.186 9.31994 27.7219 12.4112C23.4247 14.8409 19.5768 18.1509 16.9638 22.3835C13.7484 27.5919 12.4966 34.696 16.1991 40.0108C18.7742 43.7087 23.4071 45.4363 27.7918 45.1905C32.4692 44.9294 37.0289 42.5859 40.4108 39.4026C46.1289 34.021 49.3981 25.8625 49.8599 18.0757C50.0501 14.8612 49.8978 11.2588 48.8185 8.11775C49.5975 8.00032 50.3756 7.87867 51.1572 7.77898C52.6395 7.59058 52.4157 5.26477 50.9267 5.45401Z" fill="#EBEBEB"/>
</svg>
